<svg viewBox="0 0 100 100" xmlns="http://www.w3.org/2000/svg" fill="none" stroke="currentColor" stroke-width="10" stroke-linecap="butt" aria-hidden="true">
  <circle cx="50" cy="50" r="16" fill="none"/>
  <path d="M 34.00 24.00 A 16 16 0 0 1 66.00 24.00" fill="none"/>
  <path d="M 76.00 34.00 A 16 16 0 0 1 76.00 66.00" fill="none"/>
  <path d="M 66.00 76.00 A 16 16 0 0 1 34.00 76.00" fill="none"/>
  <path d="M 24.00 66.00 A 16 16 0 0 1 24.00 34.00" fill="none"/>
  <path d="M 8.00 24.00 A 16 16 0 0 1 24.00 8.00" fill="none"/>
  <path d="M 76.00 8.00 A 16 16 0 0 1 92.00 24.00" fill="none"/>
  <path d="M 92.00 76.00 A 16 16 0 0 1 76.00 92.00" fill="none"/>
  <path d="M 24.00 92.00 A 16 16 0 0 1 8.00 76.00" fill="none"/>
</svg>
