<svg width="281" height="51" viewBox="0 0 281 51" fill="none" xmlns="http://www.w3.org/2000/svg">
<path d="M12.5352 0V3.91797C7.77609 3.91813 3.91813 7.77609 3.91797 12.5352V12.5361H0V12.5342C0.000185539 5.61183 5.61183 0.000185543 12.5342 0H12.5352Z" fill="black"/>
<path d="M12.5352 50.1387V46.2217C7.77617 46.2215 3.91819 42.3635 3.91797 37.6045V37.6035H0V37.6045C0.000335945 44.5267 5.61192 50.1385 12.5342 50.1387H12.5352Z" fill="black"/>
<path d="M12.5352 12.5352V16.4531C7.77609 16.4533 3.91813 20.3112 3.91797 25.0703H0V25.0693C0.000185539 18.147 5.61183 12.5353 12.5342 12.5352H12.5352Z" fill="black"/>
<path d="M12.5352 37.6035V33.6875C7.77609 33.6873 3.91813 29.8294 3.91797 25.0703V25.0693H0C0.000185539 31.9917 5.61183 37.6033 12.5342 37.6035H12.5352Z" fill="black"/>
<path d="M37.6016 0V3.91797H37.6035C42.3626 3.91813 46.2205 7.77609 46.2207 12.5352V12.5361H50.1387V12.5342C50.1385 5.61183 44.5268 0.000185543 37.6045 0H37.6016Z" fill="black"/>
<path d="M37.6016 50.1387V46.2217H37.6035C42.3626 46.2215 46.2205 42.3636 46.2207 37.6045V37.6035H50.1387V37.6045C50.1385 44.5268 44.5268 50.1385 37.6045 50.1387H37.6016Z" fill="black"/>
<path d="M37.6016 12.5352V16.4531H37.6035C42.3626 16.4533 46.2205 20.3112 46.2207 25.0703H50.1387V25.0693C50.1385 18.147 44.5268 12.5353 37.6045 12.5352H37.6016Z" fill="black"/>
<path d="M37.6016 37.6035V33.6875H37.6035C42.3626 33.6873 46.2205 29.8294 46.2207 25.0703V25.0693H50.1387C50.1385 31.9917 44.5268 37.6033 37.6045 37.6035H37.6016Z" fill="black"/>
<path d="M25.0684 0V3.91797C20.3094 3.9182 16.4514 7.77622 16.4512 12.5352V12.5361H12.5332V12.5352C12.5333 5.61282 18.1451 0.000335064 25.0674 0H25.0684Z" fill="black"/>
<path d="M25.0684 50.1387V46.2217C20.3097 46.2211 16.4514 42.3632 16.4512 37.6045V37.6035H12.5332V37.6045C12.5335 44.5266 18.1452 50.1383 25.0674 50.1387H25.0684Z" fill="black"/>
<path d="M25.0684 12.5352V16.4531C20.3093 16.4533 16.4513 20.3112 16.4512 25.0703H12.5332V25.0693C12.5334 18.147 18.145 12.5353 25.0674 12.5352H25.0684Z" fill="black"/>
<path d="M25.0684 37.6035V33.6875C20.3093 33.6873 16.4513 29.8294 16.4512 25.0703V25.0693H12.5332C12.5334 31.9917 18.145 37.6033 25.0674 37.6035H25.0684Z" fill="black"/>
<path d="M25.0664 0V3.91797H25.0684C29.8274 3.91814 33.6853 7.77618 33.6855 12.5352V12.5361H37.6035V12.5352C37.6034 5.61275 31.9917 0.000213027 25.0693 0H25.0664Z" fill="black"/>
<path d="M25.0664 50.1387V46.2217H25.0684C29.8273 46.2214 33.6853 42.3635 33.6855 37.6045V37.6035H37.6035V37.6045C37.6032 44.5267 31.9916 50.1385 25.0693 50.1387H25.0664Z" fill="black"/>
<path d="M25.0664 12.5352V16.4531H25.0684C29.8274 16.4533 33.6854 20.3112 33.6855 25.0703H37.6035V25.0693C37.6033 18.147 31.9917 12.5353 25.0693 12.5352H25.0664Z" fill="black"/>
<path d="M25.0664 37.6035V33.6875H25.0684C29.8274 33.6873 33.6854 29.8294 33.6855 25.0703V25.0693H37.6035C37.6033 31.9917 31.9917 37.6033 25.0693 37.6035H25.0664Z" fill="black"/>
<path d="M269.064 43.3563C266.364 43.3563 264.023 42.7622 262.043 41.574C260.099 40.3498 258.605 38.6396 257.56 36.4432C256.516 34.2469 255.994 31.6905 255.994 28.7741C255.994 25.9296 256.552 23.4453 257.668 21.3209C258.785 19.1606 260.315 17.4864 262.259 16.2982C264.203 15.074 266.4 14.4619 268.848 14.4619C271.296 14.4619 273.421 14.984 275.221 16.0281C277.057 17.0363 278.48 18.4945 279.488 20.4028C280.496 22.2751 281 24.5254 281 27.1538C281 27.6939 281 28.216 281 28.7201C281 29.1881 280.982 29.5842 280.946 29.9082H258.695V26.2897H278.191L276.463 27.2618C276.499 25.3536 276.193 23.7333 275.545 22.4011C274.933 21.0689 274.033 20.0608 272.845 19.3767C271.693 18.6565 270.324 18.2965 268.74 18.2965C267.264 18.2965 265.914 18.6385 264.689 19.3226C263.465 20.0067 262.493 21.0869 261.773 22.5631C261.089 24.0034 260.747 25.8756 260.747 28.18V28.9901C260.747 32.3026 261.449 34.877 262.853 36.7133C264.293 38.5135 266.436 39.4137 269.28 39.4137C271.08 39.4137 272.575 39.0176 273.763 38.2255C274.951 37.4334 275.905 36.2092 276.625 34.5529L280.46 36.2272C279.848 37.8114 279.002 39.1436 277.921 40.2238C276.841 41.268 275.563 42.0601 274.087 42.6002C272.611 43.1042 270.936 43.3563 269.064 43.3563Z" fill="black"/>
<path d="M241.43 43.3563C238.982 43.3563 236.767 42.7982 234.787 41.682C232.807 40.5658 231.222 38.9276 230.034 36.7673C228.846 34.607 228.252 31.9786 228.252 28.8821C228.252 25.8216 228.846 23.2292 230.034 21.1049C231.222 18.9446 232.807 17.3063 234.787 16.1902C236.767 15.038 238.982 14.4619 241.43 14.4619C244.382 14.4619 246.813 15.128 248.721 16.4602C250.665 17.7564 252.088 19.7367 252.988 22.4011L248.829 23.9133C248.073 22.0051 247.101 20.6368 245.913 19.8087C244.724 18.9806 243.194 18.5665 241.322 18.5665C239.918 18.5665 238.586 18.9266 237.325 19.6467C236.065 20.3308 235.039 21.429 234.247 22.9412C233.455 24.4534 233.059 26.4337 233.059 28.8821C233.059 31.3305 233.455 33.3288 234.247 34.877C235.039 36.3892 236.065 37.5054 237.325 38.2255C238.586 38.9456 239.918 39.3057 241.322 39.3057C243.158 39.3057 244.67 38.8916 245.859 38.0635C247.083 37.1993 248.073 35.8131 248.829 33.9048L252.988 35.3631C252.088 38.0275 250.665 40.0258 248.721 41.358C246.813 42.6902 244.382 43.3563 241.43 43.3563Z" fill="black"/>
<path d="M219.051 42.7082V25.5876C219.051 23.1752 218.474 21.411 217.322 20.2948C216.206 19.1786 214.748 18.6205 212.948 18.6205C210.787 18.6205 209.041 19.3406 207.709 20.7809C206.413 22.2211 205.765 24.1654 205.765 26.6137V42.7082H201.174V15.11H205.44V19.3767C206.197 17.8284 207.277 16.6222 208.681 15.7581C210.121 14.894 211.867 14.4619 213.92 14.4619C215.936 14.4619 217.664 14.858 219.105 15.6501C220.545 16.4422 221.661 17.6304 222.453 19.2146C223.245 20.7629 223.641 22.7252 223.641 25.1015V42.7082H219.051Z" fill="black"/>
<path d="M181.899 43.3563C179.234 43.3563 177.038 42.6542 175.31 41.25C173.618 39.8097 172.771 37.8834 172.771 35.4711C172.771 33.0947 173.564 31.2224 175.148 29.8542C176.768 28.45 178.802 27.4959 181.251 26.9918L192.809 24.5614V28.018L183.519 30.0703C181.647 30.5023 180.189 31.1144 179.144 31.9065C178.1 32.6627 177.578 33.7788 177.578 35.255C177.578 36.6593 178.064 37.7574 179.036 38.5495C180.009 39.3057 181.323 39.6837 182.979 39.6837C184.455 39.6837 185.733 39.3957 186.814 38.8196C187.93 38.2075 188.794 37.3614 189.406 36.2812C190.054 35.201 190.378 33.9769 190.378 32.6087V24.5074C190.378 22.5991 189.856 21.1049 188.812 20.0248C187.804 18.9446 186.382 18.4045 184.545 18.4045C182.673 18.4045 181.197 18.8546 180.117 19.7547C179.072 20.6188 178.352 21.825 177.956 23.3733L173.528 22.3471C174.068 20.0788 175.292 18.2065 177.2 16.7303C179.108 15.218 181.575 14.4619 184.599 14.4619C187.984 14.4619 190.558 15.362 192.322 17.1623C194.087 18.9266 194.969 21.411 194.969 24.6154V37.0373V42.7082H190.864V38.9816C190 40.3858 188.812 41.466 187.3 42.2221C185.787 42.9782 183.987 43.3563 181.899 43.3563Z" fill="black"/>
<path d="M163.092 42.7082V15.11H167.683V42.7082H163.092ZM165.414 10.9514C164.514 10.9514 163.74 10.6453 163.092 10.0332C162.48 9.38515 162.174 8.61103 162.174 7.7109C162.174 6.84676 162.48 6.10865 163.092 5.49656C163.74 4.84846 164.514 4.52441 165.414 4.52441C166.278 4.52441 167.017 4.84846 167.629 5.49656C168.277 6.10865 168.601 6.84676 168.601 7.7109C168.601 8.61103 168.277 9.38515 167.629 10.0332C167.017 10.6453 166.278 10.9514 165.414 10.9514Z" fill="black"/>
<path d="M143.204 43.3567C140.9 43.3567 138.812 42.7986 136.94 41.6824C135.103 40.5662 133.627 38.928 132.511 36.7677C131.431 34.6073 130.891 31.9789 130.891 28.8825C130.891 25.822 131.431 23.2296 132.511 21.1053C133.591 18.945 135.067 17.3067 136.94 16.1906C138.812 15.0384 140.9 14.4623 143.204 14.4623C144.285 14.4623 145.383 14.6243 146.499 14.9484C147.651 15.2724 148.731 15.7945 149.739 16.5146C150.784 17.2347 151.666 18.2609 152.386 19.5931V4.63281H156.977V42.7086H152.656V37.9558C152.008 39.324 151.162 40.4042 150.118 41.1963C149.073 41.9884 147.957 42.5465 146.769 42.8706C145.581 43.1946 144.393 43.3567 143.204 43.3567ZM144.177 39.306C145.761 39.306 147.183 38.928 148.443 38.1719C149.703 37.4158 150.712 36.2816 151.468 34.7694C152.26 33.2211 152.656 31.2588 152.656 28.8825C152.656 26.5421 152.26 24.6158 151.468 23.1036C150.712 21.5554 149.703 20.4212 148.443 19.7011C147.183 18.945 145.761 18.5669 144.177 18.5669C142.628 18.5669 141.206 18.945 139.91 19.7011C138.65 20.4212 137.624 21.5554 136.832 23.1036C136.075 24.6158 135.697 26.5421 135.697 28.8825C135.697 31.2588 136.075 33.2211 136.832 34.7694C137.624 36.2816 138.65 37.4158 139.91 38.1719C141.206 38.928 142.628 39.306 144.177 39.306Z" fill="black"/>
<path d="M112.913 43.3563C110.248 43.3563 108.052 42.6542 106.324 41.25C104.631 39.8097 103.785 37.8834 103.785 35.4711C103.785 33.0947 104.577 31.2224 106.162 29.8542C107.782 28.45 109.816 27.4959 112.264 26.9918L123.822 24.5614V28.018L114.533 30.0703C112.66 30.5023 111.202 31.1144 110.158 31.9065C109.114 32.6627 108.592 33.7788 108.592 35.255C108.592 36.6593 109.078 37.7574 110.05 38.5495C111.022 39.3057 112.336 39.6837 113.993 39.6837C115.469 39.6837 116.747 39.3957 117.827 38.8196C118.943 38.2075 119.808 37.3614 120.42 36.2812C121.068 35.201 121.392 33.9769 121.392 32.6087V24.5074C121.392 22.5991 120.87 21.1049 119.826 20.0248C118.817 18.9446 117.395 18.4045 115.559 18.4045C113.687 18.4045 112.21 18.8546 111.13 19.7547C110.086 20.6188 109.366 21.825 108.97 23.3733L104.541 22.3471C105.081 20.0788 106.306 18.2065 108.214 16.7303C110.122 15.218 112.588 14.4619 115.613 14.4619C118.997 14.4619 121.572 15.362 123.336 17.1623C125.1 18.9266 125.983 21.411 125.983 24.6154V37.0373V42.7082H121.878V38.9816C121.014 40.3858 119.826 41.466 118.313 42.2221C116.801 42.9782 115.001 43.3563 112.913 43.3563Z" fill="black"/>
<path d="M74 42.9986V4.92285H88.7442C91.3006 4.92285 93.4969 5.31891 95.3332 6.11103C97.2055 6.90315 98.6277 8.03732 99.5999 9.51355C100.608 10.9538 101.112 12.682 101.112 14.6983C101.112 16.7506 100.608 18.5149 99.5999 19.9911C98.6277 21.4313 97.2055 22.5475 95.3332 23.3396C93.4969 24.1318 91.3006 24.5278 88.7442 24.5278H82.1012V22.9076H76.2683V20.4232H88.2041C90.7965 20.4232 92.7768 19.9731 94.145 19.073C95.5493 18.1368 96.2514 16.6786 96.2514 14.6983C96.2514 12.754 95.5493 11.3138 94.145 10.3777C92.7768 9.44153 90.7965 8.97346 88.2041 8.97346H76.8084L78.8067 6.92115V42.9986H74Z" fill="black"/>
<path d="M78.7754 24.498C78.7907 24.498 78.806 24.498 78.8213 24.498C89.0228 24.4981 97.2928 32.7682 97.293 42.9697H101.57C101.57 30.4208 91.3646 20.2471 78.7754 20.2461V24.498Z" fill="black"/>
</svg>
